<svg id="Layer_1" data-name="Layer 1" xmlns="http://www.w3.org/2000/svg" xmlns:xlink="http://www.w3.org/1999/xlink" viewBox="0 0 300 300"><defs><radialGradient id="radial-gradient" cx="24.3233" cy="103.3662" r="204.3654" gradientTransform="translate(57.8408 46.6221) scale(1.0691 1.0691)" gradientUnits="userSpaceOnUse"><stop offset="0.3174" stop-color="#63f"/><stop offset="0.3381" stop-color="#6634ff" stop-opacity="0.9617"/><stop offset="0.5283" stop-color="#673aff" stop-opacity="0.6249"/><stop offset="0.6962" stop-color="#683fff" stop-opacity="0.3571"/><stop offset="0.8354" stop-color="#6942ff" stop-opacity="0.1637"/><stop offset="0.9408" stop-color="#6944ff" stop-opacity="0.0446"/><stop offset="1" stop-color="#6945ff" stop-opacity="0"/></radialGradient><linearGradient id="linear-gradient" x1="2.7814" y1="150.0533" x2="286.4928" y2="150.0533" gradientUnits="userSpaceOnUse"><stop offset="0" stop-color="#6945ff"/><stop offset="1" stop-color="#2592fb"/></linearGradient><radialGradient id="radial-gradient-2" cx="152.9537" cy="104.2446" r="79.2568" gradientTransform="translate(-0.4615 -4.3092) scale(1.0876 1.0876)" gradientUnits="userSpaceOnUse"><stop offset="0" stop-color="#e97656"/><stop offset="0.2622" stop-color="#ff26e2"/><stop offset="0.683" stop-color="#aa32ff"/><stop offset="0.9576" stop-color="#3cc8f5"/></radialGradient></defs><path d="M218.8486,150.0533a68.5868,68.5868,0,0,0-5.0265-25.8183l72.6707-29.4145a147.6078,147.6078,0,0,1-.9048,112.67L213.41,176.9066A68.5917,68.5917,0,0,0,218.8486,150.0533Z" fill="url(#radial-gradient)"/><path d="M198.6938,198.7112A68.8139,68.8139,0,0,1,86.25,175.8716l-.16.0648.0875-.1789a68.9081,68.9081,0,0,1,.3848-52.6l.1.0422a68.8239,68.8239,0,0,1,127.16,1.0349l72.6707-29.4144A147.2568,147.2568,0,0,0,14.4987,92.5821l-.1089-.046a147.6074,147.6074,0,0,0-.8608,112.67l.151.0388-.1011.041A147.2575,147.2575,0,0,0,285.588,207.49L213.41,176.9066A68.9255,68.9255,0,0,1,198.6938,198.7112Z" fill="url(#linear-gradient)"/><path d="M86.25,176.49a68.8972,68.8972,0,0,0,36.5166,37.3732l2.9734,9.7718,74.054,4.2819a10.2047,10.2047,0,0,0,10.7937-10.1876V183.7653H228.3l-10.2035-43.2607-2.628-11.1425q-.7471-2.2905-1.6462-4.5093a68.8381,68.8381,0,0,0-127.16-1.0349l-.1-.0426a68.9139,68.9139,0,0,0-.384,52.6Z" fill="#fff"/><path d="M164.6319,218.34c-8.2416-3.1522-15.3816-7.05-18.232-11.6474-4.8829-7.8756-4.9969,4.2392-4.6422,12.0416.1477,3.2479.3765,5.7493.3765,5.7493l59.67,3.45S181.0357,224.614,164.6319,218.34Z" fill="#d1d3d4"/><circle cx="182.1328" cy="155.514" r="8.4842" transform="translate(-38.5527 62.4825) rotate(-17.6342)"/><path d="M185.5572,124.9146a12.4053,12.4053,0,0,0-2.1431-5.1644,44.3642,44.3642,0,0,0-79.0055,37.05,44.8982,44.8982,0,0,0,3.6876,9.4655c.1229.2331.2544.4562.3915.6726a9.4021,9.4021,0,0,0,16.5072-1.4565c.3625-.8422.7356-1.6912,1.1214-2.5393,4.2286-9.2952,10.0294-18.4773,21.1984-17.4007a50.8275,50.8275,0,0,0,19.7792-2.0262,57.7513,57.7513,0,0,0,12.2693-5.3926A12.8706,12.8706,0,0,0,185.5572,124.9146Z" fill="url(#radial-gradient-2)"/></svg>